<svg width="250" height="250" viewBox="0 0 250 250" fill="none" xmlns="http://www.w3.org/2000/svg">
<rect x="-10" width="270" height="250" fill="#126346"/>
<g clip-path="url(#clip0)">
<path d="M128.421 55.1379V44.6432L153.554 38.4775L151.569 31L120.484 38.4775V55.1379H85.9597V72.1919H162.945V55.1379H128.421Z" fill="white"/>
<path d="M91.2507 78.7511L100.378 142.769C100.907 146.705 104.346 149.591 108.182 149.591H140.326C144.294 149.591 147.601 146.705 148.13 142.769L157.257 78.7511H91.2507Z" fill="white"/>
</g>
<path d="M85.268 167.872C87.908 167.872 90.224 168.388 92.216 169.42C94.232 170.452 95.78 171.928 96.86 173.848C97.964 175.744 98.516 177.952 98.516 180.472C98.516 182.992 97.964 185.2 96.86 187.096C95.78 188.968 94.232 190.42 92.216 191.452C90.224 192.484 87.908 193 85.268 193H76.484V167.872H85.268ZM85.088 188.716C87.728 188.716 89.768 187.996 91.208 186.556C92.648 185.116 93.368 183.088 93.368 180.472C93.368 177.856 92.648 175.816 91.208 174.352C89.768 172.864 87.728 172.12 85.088 172.12H81.524V188.716H85.088ZM107.329 176.152C107.977 175.096 108.817 174.268 109.849 173.668C110.905 173.068 112.105 172.768 113.449 172.768V178.06H112.117C110.533 178.06 109.333 178.432 108.517 179.176C107.725 179.92 107.329 181.216 107.329 183.064V193H102.289V173.056H107.329V176.152ZM119.399 170.68C118.511 170.68 117.767 170.404 117.167 169.852C116.591 169.276 116.303 168.568 116.303 167.728C116.303 166.888 116.591 166.192 117.167 165.64C117.767 165.064 118.511 164.776 119.399 164.776C120.287 164.776 121.019 165.064 121.595 165.64C122.195 166.192 122.495 166.888 122.495 167.728C122.495 168.568 122.195 169.276 121.595 169.852C121.019 170.404 120.287 170.68 119.399 170.68ZM121.883 173.056V193H116.843V173.056H121.883ZM137.915 172.768C140.291 172.768 142.211 173.524 143.675 175.036C145.139 176.524 145.871 178.612 145.871 181.3V193H140.831V181.984C140.831 180.4 140.435 179.188 139.643 178.348C138.851 177.484 137.771 177.052 136.403 177.052C135.011 177.052 133.907 177.484 133.091 178.348C132.299 179.188 131.903 180.4 131.903 181.984V193H126.863V173.056H131.903V175.54C132.575 174.676 133.427 174.004 134.459 173.524C135.515 173.02 136.667 172.768 137.915 172.768ZM162.472 193L155.704 184.504V193H150.664V166.36H155.704V181.516L162.4 173.056H168.952L160.168 183.064L169.024 193H162.472Z" fill="white"/>
<defs>
<clipPath id="clip0">
<rect width="119.579" height="118.591" fill="white" transform="translate(64.663 31)"/>
</clipPath>
</defs>
</svg>
