<svg width="250" height="250" viewBox="0 0 250 250" fill="none" xmlns="http://www.w3.org/2000/svg">
<rect x="-10" width="270" height="250" fill="#9EB706"/>
<path d="M93.0001 160.872V164.94H82.5241V171.384H90.5521V175.38H82.5241V186H77.4841V160.872H93.0001ZM105.43 186.324C103.51 186.324 101.782 185.904 100.246 185.064C98.71 184.2 97.498 182.988 96.61 181.428C95.746 179.868 95.314 178.068 95.314 176.028C95.314 173.988 95.758 172.188 96.646 170.628C97.558 169.068 98.794 167.868 100.354 167.028C101.914 166.164 103.654 165.732 105.574 165.732C107.494 165.732 109.234 166.164 110.794 167.028C112.354 167.868 113.578 169.068 114.466 170.628C115.378 172.188 115.834 173.988 115.834 176.028C115.834 178.068 115.366 179.868 114.43 181.428C113.518 182.988 112.27 184.2 110.686 185.064C109.126 185.904 107.374 186.324 105.43 186.324ZM105.43 181.932C106.342 181.932 107.194 181.716 107.986 181.284C108.802 180.828 109.45 180.156 109.93 179.268C110.41 178.38 110.65 177.3 110.65 176.028C110.65 174.132 110.146 172.68 109.138 171.672C108.154 170.64 106.942 170.124 105.502 170.124C104.062 170.124 102.85 170.64 101.866 171.672C100.906 172.68 100.426 174.132 100.426 176.028C100.426 177.924 100.894 179.388 101.83 180.42C102.79 181.428 103.99 181.932 105.43 181.932ZM128.387 186.324C126.467 186.324 124.739 185.904 123.203 185.064C121.667 184.2 120.455 182.988 119.567 181.428C118.703 179.868 118.271 178.068 118.271 176.028C118.271 173.988 118.715 172.188 119.603 170.628C120.515 169.068 121.751 167.868 123.311 167.028C124.871 166.164 126.611 165.732 128.531 165.732C130.451 165.732 132.191 166.164 133.751 167.028C135.311 167.868 136.535 169.068 137.423 170.628C138.335 172.188 138.791 173.988 138.791 176.028C138.791 178.068 138.323 179.868 137.387 181.428C136.475 182.988 135.227 184.2 133.643 185.064C132.083 185.904 130.331 186.324 128.387 186.324ZM128.387 181.932C129.299 181.932 130.151 181.716 130.943 181.284C131.759 180.828 132.407 180.156 132.887 179.268C133.367 178.38 133.607 177.3 133.607 176.028C133.607 174.132 133.103 172.68 132.095 171.672C131.111 170.64 129.899 170.124 128.459 170.124C127.019 170.124 125.807 170.64 124.823 171.672C123.863 172.68 123.383 174.132 123.383 176.028C123.383 177.924 123.851 179.388 124.787 180.42C125.747 181.428 126.947 181.932 128.387 181.932ZM141.192 175.956C141.192 173.94 141.588 172.152 142.38 170.592C143.196 169.032 144.3 167.832 145.692 166.992C147.084 166.152 148.632 165.732 150.336 165.732C151.632 165.732 152.868 166.02 154.044 166.596C155.22 167.148 156.156 167.892 156.852 168.828V159.36H161.964V186H156.852V183.048C156.228 184.032 155.352 184.824 154.224 185.424C153.096 186.024 151.788 186.324 150.3 186.324C148.62 186.324 147.084 185.892 145.692 185.028C144.3 184.164 143.196 182.952 142.38 181.392C141.588 179.808 141.192 177.996 141.192 175.956ZM156.888 176.028C156.888 174.804 156.648 173.76 156.168 172.896C155.688 172.008 155.04 171.336 154.224 170.88C153.408 170.4 152.532 170.16 151.596 170.16C150.66 170.16 149.796 170.388 149.004 170.844C148.212 171.3 147.564 171.972 147.06 172.86C146.58 173.724 146.34 174.756 146.34 175.956C146.34 177.156 146.58 178.212 147.06 179.124C147.564 180.012 148.212 180.696 149.004 181.176C149.82 181.656 150.684 181.896 151.596 181.896C152.532 181.896 153.408 181.668 154.224 181.212C155.04 180.732 155.688 180.06 156.168 179.196C156.648 178.308 156.888 177.252 156.888 176.028Z" fill="white"/>
<path d="M92.981 99.781L91.5128 96.551C91.3572 96.2101 91.107 95.9209 90.792 95.718C90.4769 95.5151 90.1102 95.4069 89.7354 95.4063H88.6211C88.2275 95.4061 87.8429 95.5249 87.518 95.7471C87.193 95.9693 86.9428 96.2845 86.8001 96.6514C86.6574 97.0183 86.6289 97.4198 86.7183 97.8032C86.8078 98.1865 87.011 98.5339 87.3013 98.7998L96.274 107.025L92.9825 99.7839L92.981 99.781Z" fill="white"/>
<path d="M154.543 95.4063H151.21C150.859 95.4063 150.515 95.5008 150.213 95.6799C149.911 95.859 149.663 96.1161 149.495 96.4241L138.887 115.873C138.758 116.11 138.581 116.317 138.367 116.483C138.154 116.648 137.908 116.767 137.646 116.832L129.834 118.785C129.435 118.885 129.016 118.857 128.635 118.704L109.103 110.892C108.659 110.714 108.296 110.379 108.082 109.952L101.349 96.4859C101.188 96.1606 100.938 95.887 100.63 95.6962C100.321 95.5053 99.9645 95.4049 99.6014 95.4063H98.3165C97.9897 95.4063 97.6681 95.4883 97.3813 95.6448C97.0944 95.8012 96.8513 96.0272 96.6744 96.302C96.4975 96.5767 96.3923 96.8915 96.3686 97.2174C96.3448 97.5433 96.4032 97.87 96.5384 98.1675L103.619 113.741L132.041 138.375H144.984V134.469C144.984 134.212 145.035 133.958 145.133 133.721C145.231 133.484 145.375 133.269 145.556 133.088L147.175 131.47C147.72 130.927 148.153 130.281 148.448 129.57C148.742 128.859 148.893 128.096 148.891 127.326V114.938C148.891 114.659 148.95 114.383 149.066 114.129L156.321 98.1675C156.456 97.87 156.515 97.5433 156.491 97.2174C156.467 96.8915 156.362 96.5767 156.185 96.302C156.008 96.0272 155.765 95.8012 155.478 95.6448C155.191 95.4883 154.87 95.4063 154.543 95.4063V95.4063Z" fill="white"/>
<path d="M127.406 142.281H146.938V146.188H127.406V142.281Z" fill="white"/>
<path d="M166.469 81.7344C166.469 61.2722 149.822 44.625 129.36 44.625H117.641C97.1787 44.625 80.5315 61.2722 80.5315 81.7344V83.6875H166.469V81.7344Z" fill="white"/>
<path d="M72.719 91.5H174.281C174.799 91.4994 175.296 91.2935 175.662 90.9273C176.028 90.5611 176.234 90.0647 176.235 89.5469V87.5938H70.7659V89.5469C70.7665 90.0647 70.9724 90.5611 71.3386 90.9273C71.7047 91.2935 72.2012 91.4994 72.719 91.5Z" fill="white"/>
<path d="M131.313 32.9062H115.688C115.17 32.9062 114.673 33.112 114.307 33.4783C113.94 33.8446 113.735 34.3414 113.735 34.8594C113.735 35.3774 113.94 35.8742 114.307 36.2404C114.673 36.6067 115.17 36.8125 115.688 36.8125H119.594V40.7188H127.406V36.8125H131.313C131.831 36.8125 132.328 36.6067 132.694 36.2404C133.06 35.8742 133.266 35.3774 133.266 34.8594C133.266 34.3414 133.06 33.8446 132.694 33.4783C132.328 33.112 131.831 32.9062 131.313 32.9062V32.9062Z" fill="white"/>
</svg>
