<svg width="250" height="250" fill="none" xmlns="http://www.w3.org/2000/svg"><path fill="#126346" d="M-10 0h270v250H-10z"/><g clip-path="url(#clip0)" fill="#fff"><path d="M128.421 55.138V44.643l25.133-6.166L151.569 31l-31.085 7.477v16.66H85.96v17.055h76.985V55.138h-34.524zM91.25 78.751l9.128 64.018c.529 3.936 3.968 6.822 7.804 6.822h32.144a7.832 7.832 0 007.804-6.822l9.127-64.018H91.251z"/></g><path d="M85.268 167.872c2.64 0 4.956.516 6.948 1.548 2.016 1.032 3.564 2.508 4.644 4.428 1.104 1.896 1.656 4.104 1.656 6.624 0 2.52-.552 4.728-1.656 6.624-1.08 1.872-2.628 3.324-4.644 4.356-1.992 1.032-4.308 1.548-6.948 1.548h-8.784v-25.128h8.784zm-.18 20.844c2.64 0 4.68-.72 6.12-2.16 1.44-1.44 2.16-3.468 2.16-6.084 0-2.616-.72-4.656-2.16-6.12-1.44-1.488-3.48-2.232-6.12-2.232h-3.564v16.596h3.564zm22.241-12.564a7.133 7.133 0 012.52-2.484c1.056-.6 2.256-.9 3.6-.9v5.292h-1.332c-1.584 0-2.784.372-3.6 1.116-.792.744-1.188 2.04-1.188 3.888V193h-5.04v-19.944h5.04v3.096zm12.07-5.472c-.888 0-1.632-.276-2.232-.828-.576-.576-.864-1.284-.864-2.124 0-.84.288-1.536.864-2.088.6-.576 1.344-.864 2.232-.864.888 0 1.62.288 2.196.864.6.552.9 1.248.9 2.088 0 .84-.3 1.548-.9 2.124-.576.552-1.308.828-2.196.828zm2.484 2.376V193h-5.04v-19.944h5.04zm16.032-.288c2.376 0 4.296.756 5.76 2.268 1.464 1.488 2.196 3.576 2.196 6.264V193h-5.04v-11.016c0-1.584-.396-2.796-1.188-3.636-.792-.864-1.872-1.296-3.24-1.296-1.392 0-2.496.432-3.312 1.296-.792.84-1.188 2.052-1.188 3.636V193h-5.04v-19.944h5.04v2.484a6.833 6.833 0 012.556-2.016c1.056-.504 2.208-.756 3.456-.756zM162.472 193l-6.768-8.496V193h-5.04v-26.64h5.04v15.156l6.696-8.46h6.552l-8.784 10.008 8.856 9.936h-6.552z" fill="#fff"/><defs><clipPath id="clip0"><path fill="#fff" transform="translate(64.663 31)" d="M0 0h119.579v118.591H0z"/></clipPath></defs></svg>