<svg width="250" height="250" fill="none" xmlns="http://www.w3.org/2000/svg"><path fill="#9EB706" d="M-10 0h270v250H-10z"/><path d="M93 160.872v4.068H82.524v6.444h8.028v3.996h-8.028V186h-5.04v-25.128H93zm12.43 25.452c-1.92 0-3.648-.42-5.184-1.26-1.536-.864-2.748-2.076-3.636-3.636-.864-1.56-1.296-3.36-1.296-5.4 0-2.04.444-3.84 1.332-5.4.912-1.56 2.148-2.76 3.708-3.6 1.56-.864 3.3-1.296 5.22-1.296s3.66.432 5.22 1.296a9.137 9.137 0 013.672 3.6c.912 1.56 1.368 3.36 1.368 5.4 0 2.04-.468 3.84-1.404 5.4a9.566 9.566 0 01-3.744 3.636c-1.56.84-3.312 1.26-5.256 1.26zm0-4.392c.912 0 1.764-.216 2.556-.648.816-.456 1.464-1.128 1.944-2.016.48-.888.72-1.968.72-3.24 0-1.896-.504-3.348-1.512-4.356-.984-1.032-2.196-1.548-3.636-1.548s-2.652.516-3.636 1.548c-.96 1.008-1.44 2.46-1.44 4.356s.468 3.36 1.404 4.392c.96 1.008 2.16 1.512 3.6 1.512zm22.957 4.392c-1.92 0-3.648-.42-5.184-1.26-1.536-.864-2.748-2.076-3.636-3.636-.864-1.56-1.296-3.36-1.296-5.4 0-2.04.444-3.84 1.332-5.4.912-1.56 2.148-2.76 3.708-3.6 1.56-.864 3.3-1.296 5.22-1.296s3.66.432 5.22 1.296a9.137 9.137 0 013.672 3.6c.912 1.56 1.368 3.36 1.368 5.4 0 2.04-.468 3.84-1.404 5.4a9.566 9.566 0 01-3.744 3.636c-1.56.84-3.312 1.26-5.256 1.26zm0-4.392c.912 0 1.764-.216 2.556-.648.816-.456 1.464-1.128 1.944-2.016.48-.888.72-1.968.72-3.24 0-1.896-.504-3.348-1.512-4.356-.984-1.032-2.196-1.548-3.636-1.548s-2.652.516-3.636 1.548c-.96 1.008-1.44 2.46-1.44 4.356s.468 3.36 1.404 4.392c.96 1.008 2.16 1.512 3.6 1.512zm12.805-5.976c0-2.016.396-3.804 1.188-5.364.816-1.56 1.92-2.76 3.312-3.6 1.392-.84 2.94-1.26 4.644-1.26 1.296 0 2.532.288 3.708.864 1.176.552 2.112 1.296 2.808 2.232v-9.468h5.112V186h-5.112v-2.952c-.624.984-1.5 1.776-2.628 2.376-1.128.6-2.436.9-3.924.9-1.68 0-3.216-.432-4.608-1.296-1.392-.864-2.496-2.076-3.312-3.636-.792-1.584-1.188-3.396-1.188-5.436zm15.696.072c0-1.224-.24-2.268-.72-3.132-.48-.888-1.128-1.56-1.944-2.016a5.096 5.096 0 00-2.628-.72c-.936 0-1.8.228-2.592.684-.792.456-1.44 1.128-1.944 2.016-.48.864-.72 1.896-.72 3.096 0 1.2.24 2.256.72 3.168.504.888 1.152 1.572 1.944 2.052.816.48 1.68.72 2.592.72.936 0 1.812-.228 2.628-.684a5.237 5.237 0 001.944-2.016c.48-.888.72-1.944.72-3.168zM92.981 99.781l-1.468-3.23a1.958 1.958 0 00-1.778-1.145h-1.114a1.953 1.953 0 00-1.32 3.394l8.973 8.225-3.291-7.241-.002-.003zm61.562-4.375h-3.333a1.954 1.954 0 00-1.715 1.018l-10.608 19.449a1.955 1.955 0 01-1.241.959l-7.812 1.953c-.399.1-.818.072-1.199-.081l-19.532-7.812a1.958 1.958 0 01-1.021-.94l-6.733-13.466a1.946 1.946 0 00-1.748-1.08h-1.284a1.952 1.952 0 00-1.779 2.761l7.081 15.574 28.422 24.634h12.943v-3.906a1.957 1.957 0 01.572-1.381l1.619-1.618a5.835 5.835 0 001.716-4.144v-12.388c0-.279.059-.555.175-.809l7.255-15.962a1.953 1.953 0 00-1.778-2.76zm-27.137 46.875h19.532v3.907h-19.532v-3.907zm39.063-60.547c0-20.462-16.647-37.109-37.109-37.109h-11.719c-20.462 0-37.11 16.647-37.11 37.11v1.953h85.938v-1.954zM72.719 91.5h101.562a1.956 1.956 0 001.954-1.953v-1.953H70.765v1.953A1.955 1.955 0 0072.72 91.5zm58.594-58.594h-15.625a1.952 1.952 0 100 3.907h3.906v3.906h7.812v-3.907h3.907a1.952 1.952 0 100-3.906z" fill="#fff"/></svg>