<svg height="512" width="512" xmlns="http://www.w3.org/2000/svg"><path d="M130.994 289.919l-6.014-13.23A8.016 8.016 0 00117.7 272h-4.564a8 8 0 00-5.406 13.9l36.752 33.689L131 289.931zM383.152 272H369.5a8 8 0 00-7.023 4.169l-43.452 79.662a8 8 0 01-5.083 3.93l-32 8a8 8 0 01-4.911-.333l-80-32a8 8 0 01-4.184-3.85l-27.578-55.156a7.956 7.956 0 00-7.158-4.422h-5.263a8 8 0 00-7.283 11.31l29 63.789L290.984 448H344v-16a8 8 0 012.343-5.657l6.628-6.627A23.847 23.847 0 00360 402.745V352a8.013 8.013 0 01.717-3.311l29.718-65.379a8 8 0 00-7.283-11.31zM272 464h80v16h-80zm160-248c0-83.813-68.187-152-152-152h-48c-83.813 0-152 68.187-152 152v8h352zM48 256h416a8.009 8.009 0 008-8v-8H40v8a8.009 8.009 0 008 8zM288 16h-64a8 8 0 000 16h16v16h32V32h16a8 8 0 000-16z"/></svg>