<svg xmlns="http://www.w3.org/2000/svg" width="512" height="512"><path d="M93.999 366a19.936 19.936 0 01-14.083-5.8l-62.162-61.653C6.305 287.191 0 272.082 0 256.001c0-16.082 6.305-31.192 17.754-42.547L79.916 151.8c7.844-7.779 20.509-7.725 28.284.116 7.778 7.843 7.727 20.506-.116 28.284l-62.162 61.653C42.103 245.641 40 250.666 40 256c0 5.335 2.103 10.359 5.922 14.146l62.162 61.653c7.843 7.778 7.895 20.441.116 28.284A19.936 19.936 0 0193.999 366zm338.085-5.8l62.162-61.653C505.695 287.191 512 272.082 512 256.001c0-16.082-6.305-31.192-17.754-42.548L432.084 151.8c-7.844-7.779-20.506-7.726-28.284.116-7.778 7.843-7.727 20.506.116 28.284l62.162 61.653C469.897 245.641 472 250.666 472 256c0 5.335-2.103 10.359-5.922 14.146L403.916 331.8c-7.843 7.778-7.895 20.441-.116 28.284A19.939 19.939 0 00418.001 366c5.09 0 10.184-1.932 14.083-5.8zM326 255c0-38.598-31.402-70-70-70s-70 31.402-70 70 31.402 70 70 70 70-31.402 70-70zm-40 0c0 16.542-13.458 30-30 30s-30-13.458-30-30 13.458-30 30-30 30 13.458 30 30z"/></svg>